<svg width="22" height="26" viewBox="0 0 22 26" fill="none" xmlns="http://www.w3.org/2000/svg">
<g clip-path="url(#clip0_533_61)">
<path d="M0 26.0002V5.5415H12.219C12.219 5.65377 12.219 5.76755 12.219 5.88134C12.2207 6.88552 12.2297 7.88982 12.2201 8.894C12.2173 9.18138 12.3239 9.27603 12.606 9.27261C13.5796 9.26082 14.5534 9.26817 15.527 9.26817H15.8719V26.0002H0ZM7.75496 14.7006C9.45158 14.7006 11.1486 14.7006 12.846 14.7006C12.9346 14.7006 13.0359 14.7234 13.1106 14.6891C13.1942 14.6503 13.311 14.5563 13.308 14.4912C13.3044 14.4165 13.1961 14.328 13.1129 14.282C13.0516 14.2479 12.9578 14.2711 12.8784 14.2711H2.63686C2.55747 14.2711 2.46428 14.2481 2.40211 14.2816C2.31779 14.3269 2.25702 14.4164 2.18624 14.4871C2.25613 14.5565 2.31538 14.649 2.39933 14.6887C2.47302 14.7234 2.57469 14.7005 2.66383 14.7005C4.36095 14.7007 6.058 14.7008 7.75496 14.7006ZM7.75179 16.8445H12.8428C12.9314 16.8445 13.0327 16.8677 13.1077 16.834C13.1916 16.796 13.3103 16.7044 13.3079 16.6393C13.3056 16.5646 13.1986 16.4746 13.1162 16.4274C13.0554 16.393 12.9612 16.4165 12.8818 16.4165H2.64078C2.57127 16.4165 2.48885 16.3936 2.43529 16.4231C2.34273 16.4744 2.26829 16.5586 2.18637 16.6289C2.26525 16.7001 2.33501 16.7892 2.42693 16.8367C2.49024 16.8693 2.58254 16.8447 2.66192 16.8447L7.75179 16.8445ZM7.7442 18.5621H4.23105C3.64546 18.5621 3.05962 18.5518 2.47479 18.5726C2.37641 18.5762 2.28272 18.7144 2.18687 18.7904C2.28094 18.8566 2.37122 18.9298 2.47099 18.9854C2.50898 19.0066 2.56836 18.9894 2.61786 18.9894C6.04175 18.9894 9.46559 18.9894 12.8894 18.9894C12.9688 18.9894 13.0592 19.0095 13.1245 18.9785C13.2017 18.9417 13.3175 18.8493 13.309 18.7994C13.2946 18.7147 13.2095 18.6194 13.1287 18.5752C13.0593 18.5371 12.9543 18.5625 12.8651 18.5625C11.1581 18.5621 9.45112 18.562 7.7442 18.5621ZM7.78218 12.5572C9.46935 12.5572 11.1564 12.5572 12.8434 12.5572C12.9426 12.5572 13.0518 12.5762 13.1377 12.5408C13.2137 12.5098 13.3099 12.4148 13.3099 12.3481C13.3099 12.2777 13.2181 12.1869 13.144 12.1437C13.0832 12.1083 12.9895 12.1264 12.9104 12.1262C9.47665 12.1257 6.04289 12.1257 2.60913 12.1262C2.5205 12.1262 2.42047 12.1136 2.34653 12.1502C2.27841 12.1834 2.18966 12.2815 2.19801 12.338C2.20916 12.414 2.29234 12.5062 2.36755 12.5388C2.45213 12.5756 2.56228 12.5568 2.66129 12.5568C4.3683 12.5574 6.0753 12.5575 7.78231 12.5572H7.78218ZM7.75445 21.1343C9.45107 21.1343 11.1481 21.1343 12.8456 21.1343C12.9342 21.1343 13.0355 21.1581 13.1102 21.1242C13.1939 21.0862 13.3109 20.9923 13.3081 20.9273C13.3048 20.8529 13.1964 20.7641 13.1135 20.7183C13.0522 20.6845 12.9584 20.7084 12.879 20.7084C9.46509 20.7084 6.0512 20.7084 2.63736 20.7084C2.5581 20.7084 2.46504 20.6849 2.40262 20.7179C2.31804 20.7628 2.25676 20.8517 2.18548 20.9218C2.25562 20.9915 2.31475 21.0843 2.39895 21.1238C2.47251 21.1584 2.57418 21.1343 2.66345 21.1343C4.36049 21.1345 6.05753 21.1345 7.75458 21.1343H7.75445ZM7.77914 23.2795H12.8767C12.9562 23.2795 13.0491 23.3031 13.1119 23.2703C13.1947 23.2269 13.3115 23.1356 13.3082 23.0703C13.3046 22.9963 13.1931 22.9131 13.1107 22.8634C13.0593 22.8324 12.9751 22.8549 12.9056 22.8549H2.59115C2.52164 22.8549 2.43491 22.832 2.38654 22.8647C2.3069 22.9185 2.21599 23.0027 2.2008 23.0868C2.19168 23.1375 2.30817 23.2353 2.38654 23.2686C2.46251 23.3009 2.56241 23.2794 2.65243 23.2794C4.36121 23.2796 6.07015 23.2796 7.77927 23.2795H7.77914ZM6.1381 10.4152H9.32395C9.4926 10.4152 9.66581 10.4387 9.82826 10.4053C9.92955 10.3842 10.014 10.2774 10.106 10.209C10.0108 10.133 9.9198 10.0506 9.818 9.98472C9.78293 9.96204 9.72101 9.98054 9.67138 9.98054C7.31932 9.98054 4.96722 9.98079 2.61508 9.9813C2.52645 9.9813 2.42706 9.96863 2.3521 10.0036C2.2831 10.0359 2.19118 10.1303 2.19801 10.1868C2.20726 10.2636 2.28766 10.3552 2.36185 10.3941C2.43351 10.4321 2.53594 10.4145 2.62483 10.4145C3.796 10.4154 4.96709 10.4156 6.1381 10.4152Z" fill="#131313"/>
<path d="M16.2419 16.4238C16.2419 13.9585 16.2434 11.4932 16.2464 9.02785C16.2464 8.82347 16.1928 8.67788 16.0463 8.5328C14.9868 7.48453 13.9397 6.42359 12.876 5.37962C12.7651 5.27078 12.5722 5.1912 12.4172 5.18956C10.3611 5.17689 8.30491 5.18145 6.2487 5.18119C5.78973 5.18119 5.74655 5.12443 5.86696 4.67233C6.25271 3.22428 6.63926 1.7765 7.02662 0.328963C7.12196 -0.0269653 7.16209 -0.0482525 7.5299 0.0502011C12.2336 1.30928 16.9373 2.56873 21.6409 3.82856C22.0317 3.93323 22.0513 3.97162 21.9447 4.36924C20.2059 10.8587 18.4663 17.348 16.726 23.837C16.6808 24.0055 16.7029 24.2713 16.4348 24.2455C16.1562 24.2186 16.2448 23.9616 16.2448 23.7893C16.2407 21.334 16.2397 18.8788 16.2419 16.4238Z" fill="#131313"/>
<path d="M15.6142 8.82405H12.6699V6.04492L15.6142 8.82405Z" fill="#131313"/>
</g>
<defs>
<clipPath id="clip0_533_61">
<rect width="22" height="26" fill="white"/>
</clipPath>
</defs>
</svg>
