<svg width="24" height="16" viewBox="0 0 24 16" fill="none" xmlns="http://www.w3.org/2000/svg">
<path d="M0.765335 1.71467L10.7653 7.08667C11.1013 7.26667 11.536 7.352 11.9733 7.352C12.4107 7.352 12.8453 7.26667 13.1813 7.08667L23.1813 1.71467C23.8333 1.364 24.4493 0 23.2533 0H0.694669C-0.501331 0 0.114669 1.364 0.765335 1.71467ZM23.484 4.652L13.1813 10.0213C12.728 10.2587 12.4107 10.2867 11.9733 10.2867C11.536 10.2867 11.2187 10.2587 10.7653 10.0213C10.312 9.784 1.25467 5.036 0.514669 4.65067C-0.00533112 4.37867 2.15475e-06 4.69733 2.15475e-06 4.94267V14.6667C2.15475e-06 15.2267 0.754669 16 1.33334 16H22.6667C23.2453 16 24 15.2267 24 14.6667V4.944C24 4.69867 24.0053 4.38 23.484 4.652Z" fill="black"/>
</svg>
