<svg width="28" height="28" viewBox="0 0 28 28" fill="none" xmlns="http://www.w3.org/2000/svg">
<path d="M12.6693 9.391V11.2551H11.3047V13.5335H12.6693V20.3065H15.4743V13.5335H17.3561C17.3561 13.5335 17.5334 12.4411 17.6187 11.2457H15.4851V9.68883C15.4851 9.45463 15.7911 9.14191 16.0943 9.14191H17.6214V6.76874H15.5434C12.6002 6.76874 12.6693 9.04985 12.6693 9.391Z" fill="#131313"/>
<path d="M14.4372 24.3679C17.3095 24.3679 20.0642 23.2269 22.0953 21.1959C24.1263 19.1648 25.2674 16.4101 25.2674 13.5377C25.2674 10.6654 24.1263 7.9107 22.0953 5.87964C20.0642 3.84858 17.3095 2.70755 14.4372 2.70755C11.5648 2.70755 8.81011 3.84858 6.77906 5.87964C4.748 7.9107 3.60696 10.6654 3.60696 13.5377C3.60696 16.4101 4.748 19.1648 6.77906 21.1959C8.81011 23.2269 11.5648 24.3679 14.4372 24.3679ZM14.4372 27.0755C6.96026 27.0755 0.899414 21.0146 0.899414 13.5377C0.899414 6.06085 6.96026 0 14.4372 0C21.9141 0 27.9749 6.06085 27.9749 13.5377C27.9749 21.0146 21.9141 27.0755 14.4372 27.0755Z" fill="#131313"/>
</svg>
