<svg width="42" height="54" viewBox="0 0 42 54" fill="none" xmlns="http://www.w3.org/2000/svg">
<path d="M19.3475 29.0092C19.9333 29.5949 20.8831 29.5949 21.4689 29.0092L31.0148 19.4632C31.6006 18.8774 31.6006 17.9277 31.0148 17.3419C30.429 16.7561 29.4793 16.7561 28.8935 17.3419L20.4082 25.8272L11.9229 17.3419C11.3371 16.7561 10.3874 16.7561 9.8016 17.3419C9.21581 17.9277 9.21581 18.8774 9.8016 19.4632L19.3475 29.0092ZM18.9082 -0.000488346L18.9082 27.9485L21.9082 27.9485L21.9082 -0.000488217L18.9082 -0.000488346Z" fill="#1D1D1D"/>
<rect y="36.4175" width="41.4827" height="3.38776" rx="1.69388" fill="#1D1D1D"/>
<rect y="43.1934" width="41.4827" height="3.38776" rx="1.69388" fill="#1D1D1D"/>
<rect y="49.9688" width="41.4827" height="3.38776" rx="1.69388" fill="#1D1D1D"/>
</svg>
