<svg width="28" height="28" viewBox="0 0 28 28" fill="none" xmlns="http://www.w3.org/2000/svg">
<path fill-rule="evenodd" clip-rule="evenodd" d="M7.9565 0.0812265C9.40012 0.0147684 9.8604 0 13.5377 0C17.2151 0 17.6754 0.0159991 19.1178 0.0812265C20.5601 0.146454 21.5447 0.376595 22.4062 0.710116C23.3083 1.05102 24.1267 1.58392 24.8036 2.27311C25.4928 2.94877 26.0245 3.76595 26.3641 4.66929C26.6989 5.53078 26.9278 6.51535 26.9943 7.95527C27.0607 9.40135 27.0755 9.86163 27.0755 13.5377C27.0755 17.2151 27.0595 17.6754 26.9943 19.119C26.929 20.5589 26.6989 21.5435 26.3641 22.405C26.0245 23.3084 25.4919 24.127 24.8036 24.8036C24.1267 25.4928 23.3083 26.0245 22.4062 26.3641C21.5447 26.6989 20.5601 26.9278 19.1202 26.9943C17.6754 27.0607 17.2151 27.0755 13.5377 27.0755C9.8604 27.0755 9.40012 27.0595 7.9565 26.9943C6.51658 26.929 5.53202 26.6989 4.67052 26.3641C3.76709 26.0244 2.94855 25.4919 2.27188 24.8036C1.58315 24.1275 1.05018 23.3094 0.710116 22.4062C0.376595 21.5447 0.147684 20.5601 0.0812265 19.1202C0.0147684 17.6741 0 17.2139 0 13.5377C0 9.8604 0.0159991 9.40012 0.0812265 7.95773C0.146454 6.51535 0.376595 5.53078 0.710116 4.66929C1.05068 3.76606 1.58406 2.94792 2.27311 2.27188C2.94882 1.5833 3.76654 1.05034 4.66929 0.710116C5.53078 0.376595 6.51535 0.147684 7.95527 0.0812265H7.9565ZM19.0082 2.51802C17.5806 2.45279 17.1523 2.43926 13.5377 2.43926C9.92317 2.43926 9.49488 2.45279 8.06727 2.51802C6.74672 2.57833 6.03045 2.79862 5.55294 2.98446C4.92159 3.2306 4.46992 3.52228 3.9961 3.9961C3.54694 4.43306 3.20128 4.96501 2.98446 5.55294C2.79862 6.03045 2.57833 6.74672 2.51802 8.06727C2.45279 9.49488 2.43926 9.92317 2.43926 13.5377C2.43926 17.1523 2.45279 17.5806 2.51802 19.0082C2.57833 20.3288 2.79862 21.045 2.98446 21.5226C3.20106 22.1096 3.54689 22.6425 3.9961 23.0794C4.433 23.5286 4.96589 23.8744 5.55294 24.091C6.03045 24.2769 6.74672 24.4972 8.06727 24.5575C9.49488 24.6227 9.92194 24.6362 13.5377 24.6362C17.1536 24.6362 17.5806 24.6227 19.0082 24.5575C20.3288 24.4972 21.045 24.2769 21.5226 24.091C22.1539 23.8449 22.6056 23.5532 23.0794 23.0794C23.5286 22.6425 23.8744 22.1096 24.091 21.5226C24.2769 21.045 24.4972 20.3288 24.5575 19.0082C24.6227 17.5806 24.6362 17.1523 24.6362 13.5377C24.6362 9.92317 24.6227 9.49488 24.5575 8.06727C24.4972 6.74672 24.2769 6.03045 24.091 5.55294C23.8449 4.92159 23.5532 4.46992 23.0794 3.9961C22.6424 3.54698 22.1105 3.20132 21.5226 2.98446C21.045 2.79862 20.3288 2.57833 19.0082 2.51802ZM11.8086 17.7111C12.7743 18.1131 13.8496 18.1673 14.8508 17.8646C15.8521 17.5618 16.7171 16.9208 17.2983 16.0511C17.8795 15.1814 18.1406 14.1369 18.0373 13.0961C17.9339 12.0552 17.4723 11.0825 16.7314 10.3441C16.2591 9.87206 15.688 9.51065 15.0593 9.28584C14.4306 9.06104 13.7598 8.97843 13.0953 9.04397C12.4308 9.10951 11.7891 9.32157 11.2164 9.66488C10.6437 10.0082 10.1542 10.4742 9.78324 11.0294C9.41226 11.5846 9.16898 12.2151 9.07092 12.8756C8.97287 13.5361 9.02248 14.2101 9.21618 14.8491C9.40988 15.4881 9.74285 16.0762 10.1911 16.5711C10.6394 17.066 11.1918 17.4553 11.8086 17.7111ZM8.61739 8.61739C9.26354 7.97124 10.0306 7.45869 10.8749 7.10899C11.7191 6.7593 12.624 6.57931 13.5377 6.57931C14.4515 6.57931 15.3564 6.7593 16.2006 7.10899C17.0449 7.45869 17.812 7.97124 18.4581 8.61739C19.1043 9.26354 19.6168 10.0306 19.9665 10.8749C20.3162 11.7191 20.4962 12.624 20.4962 13.5377C20.4962 14.4515 20.3162 15.3564 19.9665 16.2006C19.6168 17.0449 19.1043 17.812 18.4581 18.4581C17.1531 19.7631 15.3832 20.4962 13.5377 20.4962C11.6923 20.4962 9.92235 19.7631 8.61739 18.4581C7.31243 17.1531 6.57931 15.3832 6.57931 13.5377C6.57931 11.6923 7.31243 9.92235 8.61739 8.61739ZM22.0395 7.6156C22.1996 7.46455 22.3278 7.28291 22.4164 7.08144C22.5051 6.87996 22.5524 6.66275 22.5556 6.44265C22.5588 6.22255 22.5179 6.00405 22.4351 5.80008C22.3523 5.5961 22.2295 5.4108 22.0739 5.25516C21.9182 5.09951 21.7329 4.97667 21.5289 4.89392C21.325 4.81116 21.1065 4.77018 20.8864 4.77339C20.6663 4.7766 20.4491 4.82393 20.2476 4.9126C20.0461 5.00126 19.8645 5.12945 19.7134 5.28957C19.4197 5.60097 19.2588 6.0146 19.2651 6.44265C19.2713 6.8707 19.4441 7.27947 19.7468 7.58218C20.0496 7.88488 20.4583 8.0577 20.8864 8.06394C21.3144 8.07018 21.728 7.90935 22.0395 7.6156Z" fill="#131313"/>
</svg>
