<svg width="95" height="118" viewBox="0 0 95 118" fill="none" xmlns="http://www.w3.org/2000/svg">
<g filter="url(#filter0_d_583_159)">
<path d="M13 0H81.8831V102L13 88.2692V0Z" fill="#FDE000"/>
</g>
<path d="M45.7577 52.7239C46.3435 53.3097 47.2932 53.3097 47.879 52.7239L57.425 43.178C58.0107 42.5922 58.0107 41.6424 57.425 41.0566C56.8392 40.4709 55.8894 40.4709 55.3036 41.0566L46.8184 49.5419L38.3331 41.0566C37.7473 40.4709 36.7975 40.4709 36.2118 41.0566C35.626 41.6424 35.626 42.5922 36.2118 43.178L45.7577 52.7239ZM45.3184 30L45.3184 51.6632L48.3184 51.6632L48.3184 30L45.3184 30Z" fill="#1D1D1D"/>
<rect x="31" y="58.2275" width="32.1532" height="2.62585" rx="1.31292" fill="#1D1D1D"/>
<rect x="31" y="63.4795" width="32.1532" height="2.62585" rx="1.31292" fill="#1D1D1D"/>
<rect x="31" y="68.731" width="32.1532" height="2.62585" rx="1.31292" fill="#1D1D1D"/>
<defs>
<filter id="filter0_d_583_159" x="0" y="-10" width="94.8828" height="128" filterUnits="userSpaceOnUse" color-interpolation-filters="sRGB">
<feFlood flood-opacity="0" result="BackgroundImageFix"/>
<feColorMatrix in="SourceAlpha" type="matrix" values="0 0 0 0 0 0 0 0 0 0 0 0 0 0 0 0 0 0 127 0" result="hardAlpha"/>
<feOffset dy="3"/>
<feGaussianBlur stdDeviation="6.5"/>
<feComposite in2="hardAlpha" operator="out"/>
<feColorMatrix type="matrix" values="0 0 0 0 0.992157 0 0 0 0 0.878431 0 0 0 0 0 0 0 0 0.38 0"/>
<feBlend mode="normal" in2="BackgroundImageFix" result="effect1_dropShadow_583_159"/>
<feBlend mode="normal" in="SourceGraphic" in2="effect1_dropShadow_583_159" result="shape"/>
</filter>
</defs>
</svg>
