<svg width="19" height="20" viewBox="0 0 19 20" fill="none" xmlns="http://www.w3.org/2000/svg">
<path d="M18.3508 16.011L15.1412 12.6277L12.6725 11.5525C13.4945 10.3203 13.9349 8.85023 13.9333 7.34382C13.9333 3.29441 10.8081 0 6.96665 0C3.12522 0 0 3.29441 0 7.34382C0 11.3932 3.12522 14.6876 6.96665 14.6876C8.40813 14.6894 9.81422 14.2171 10.9891 13.3367L12.0063 15.932L15.2158 19.3155C15.4216 19.5325 15.666 19.7047 15.9349 19.8221C16.2039 19.9395 16.4921 20 16.7832 20C17.0743 20 17.3626 19.9396 17.6315 19.8222C17.9005 19.7047 18.1448 19.5326 18.3507 19.3156C18.5565 19.0987 18.7198 18.8411 18.8312 18.5576C18.9426 18.2741 19 17.9702 19 17.6634C19 17.3565 18.9427 17.0526 18.8313 16.7691C18.7199 16.4856 18.5566 16.228 18.3508 16.011ZM1.26666 7.34382C1.26666 4.03076 3.82374 1.33524 6.96665 1.33524C10.1096 1.33524 12.6666 4.03076 12.6666 7.34382C12.6666 10.6569 10.1096 13.3524 6.96665 13.3524C3.82374 13.3524 1.26666 10.6569 1.26666 7.34382ZM17.4551 18.3714C17.2768 18.5589 17.0352 18.6642 16.7833 18.6642C16.5314 18.6642 16.2898 18.5589 16.1115 18.3714L13.0806 15.1763L12.1348 12.7631L14.4241 13.7601L17.4551 16.9552C17.633 17.1431 17.7329 17.3978 17.7329 17.6633C17.7329 17.9288 17.633 18.1835 17.4551 18.3714Z" fill="#CBCBCB"/>
</svg>
