<svg width="70" height="70" viewBox="0 0 70 70" fill="none" xmlns="http://www.w3.org/2000/svg">
<circle r="33.5" transform="matrix(-1 0 0 1 35 35)" stroke="black" stroke-width="3"/>
<path d="M28 33H30V37H28V33ZM25.5858 36.4142C24.8047 35.6332 24.8047 34.3668 25.5858 33.5858L38.3137 20.8579C39.0948 20.0768 40.3611 20.0768 41.1421 20.8579C41.9232 21.6389 41.9232 22.9052 41.1421 23.6863L29.8284 35L41.1421 46.3137C41.9232 47.0948 41.9232 48.3611 41.1421 49.1421C40.3611 49.9232 39.0948 49.9232 38.3137 49.1421L25.5858 36.4142ZM28 37H27V33H28V37Z" fill="black"/>
</svg>
