<svg width="29" height="27" viewBox="0 0 29 27" fill="none" xmlns="http://www.w3.org/2000/svg">
<path d="M27.7918 0.814476C27.5097 0.558442 27.1665 0.388415 26.7991 0.322806C26.4317 0.257197 26.0543 0.298506 25.7077 0.442261L2.0961 10.1956C1.68461 10.3656 1.33654 10.6712 1.10396 11.0665C0.871382 11.4619 0.766799 11.9258 0.805856 12.3889C0.844913 12.8519 1.02551 13.2893 1.32063 13.6354C1.61575 13.9816 2.00953 14.2179 2.44306 14.3092L8.4406 15.5707V23.4472C8.44024 23.8731 8.56008 24.2894 8.78494 24.6436C9.00979 24.9978 9.32956 25.2738 9.70373 25.4368C10.0779 25.5998 10.4897 25.6423 10.8868 25.5591C11.284 25.4758 11.6488 25.2705 11.9349 24.9692L15.2541 21.4793L20.2917 26.1404C20.6626 26.4868 21.1412 26.6783 21.6373 26.679C21.8529 26.6788 22.0671 26.6431 22.2722 26.5732C22.6105 26.4603 22.9148 26.2562 23.1547 25.9811C23.3945 25.7061 23.5616 25.3696 23.6392 25.0055L28.4514 2.92656C28.5352 2.54476 28.5181 2.14611 28.4018 1.77383C28.2855 1.40155 28.0746 1.06983 27.7918 0.81461V0.814476ZM9.2269 13.5409L2.84478 12.1988L20.7151 4.81696L9.2269 13.5409ZM10.4876 23.4461V17.0688L13.7141 20.0542L10.4876 23.4461ZM21.6439 24.5246L11.103 14.7711L26.282 3.24457L21.6439 24.5246Z" fill="#131313"/>
</svg>
