<svg width="35" height="25" viewBox="0 0 35 25" fill="none" xmlns="http://www.w3.org/2000/svg">
<path d="M0.697266 4.10749C0.697266 2.94625 1.35258 2.32009 2.66322 2.22901L7.71369 2.26317C8.05265 2.26317 8.27862 2.43394 8.39161 2.77548C8.91134 4.48319 9.49322 5.95751 10.1372 7.19845C10.7813 8.43938 11.623 9.86817 12.6625 11.4848C12.7529 11.6897 12.8997 11.7922 13.1031 11.7922C13.2613 11.7922 13.3856 11.7125 13.476 11.5531L13.5777 11.1774L13.6116 5.26873C13.6116 4.85888 13.5155 4.58565 13.3234 4.44903C13.1314 4.31242 12.7755 4.20996 12.2557 4.14165C11.849 4.07334 11.6456 3.82287 11.6456 3.39025C11.6456 3.29918 11.6569 3.23087 11.6795 3.18533C12.154 1.70531 13.5099 0.965307 15.747 0.965307L17.6452 0.931152C18.5038 0.931152 19.2157 1.14746 19.7806 1.58008C20.3455 2.0127 20.628 2.69579 20.628 3.62933V11.3823C20.7862 11.4962 20.933 11.5531 21.0686 11.5531C21.4076 11.5531 21.7013 11.3482 21.9499 10.9383C24.4356 7.43183 25.7801 5.08658 25.9835 3.90257C25.9835 3.8798 26.0061 3.82287 26.0513 3.7318C26.2095 3.39025 26.4694 3.09425 26.8309 2.84379C27.1925 2.59332 27.5088 2.42255 27.78 2.33147C27.8704 2.28594 27.9721 2.26317 28.085 2.26317H33.3389L33.6779 2.29732C34.1298 2.29732 34.4801 2.51363 34.7286 2.94625C34.819 3.08287 34.8812 3.23087 34.915 3.39025C34.9489 3.54964 34.9715 3.70903 34.9828 3.86841C34.9941 4.0278 34.9998 4.11888 34.9998 4.14165V4.38073C34.8416 5.31427 34.4405 6.31044 33.7965 7.36922C33.1525 8.428 32.3333 9.57216 31.339 10.8017C30.3448 12.0313 29.7233 12.8396 29.4748 13.2267C29.2714 13.4999 29.1697 13.7504 29.1697 13.9781C29.1697 14.1602 29.2601 14.3651 29.4409 14.5928L34.3897 20.8772C34.6608 21.2415 34.7964 21.64 34.7964 22.0726C34.7964 22.5963 34.593 23.0289 34.1863 23.3705C33.7795 23.712 33.2937 23.9055 32.7288 23.9511L32.1525 23.9852H27.0004C26.9778 23.9852 26.9326 23.9909 26.8648 24.0023C26.797 24.0137 26.7518 24.0194 26.7292 24.0194C26.2321 24.0194 25.7688 23.8031 25.3395 23.3705C25.1813 23.1883 24.1192 21.8449 22.1533 19.3403C22.0403 19.1809 21.8821 19.0329 21.6787 18.8963C21.5884 19.2606 21.4697 19.7843 21.3228 20.4674C21.176 21.1504 21.0686 21.64 21.0008 21.936L20.8991 22.5166C20.6732 23.3135 20.1986 23.7917 19.4755 23.9511L19.001 23.9852H15.6792C13.8036 23.9852 11.9337 23.12 10.0694 21.3895C8.20518 19.659 6.52734 17.4219 5.03592 14.6782C3.54451 11.9345 2.15478 8.74108 0.866744 5.09796C0.753759 4.80196 0.697266 4.4718 0.697266 4.10749ZM21.0686 12.9534C20.5941 12.9534 20.1647 12.8225 19.7806 12.5607C19.3964 12.2988 19.2044 11.9402 19.2044 11.4848V3.62933C19.2044 3.17394 19.0914 2.84948 18.8654 2.65594C18.6394 2.4624 18.244 2.36563 17.679 2.36563L15.747 2.43394C14.7753 2.43394 14.0409 2.60471 13.5438 2.94625C14.538 3.42441 15.0352 4.19857 15.0352 5.26873V11.2799C14.99 11.8491 14.764 12.3216 14.3573 12.6973C13.9505 13.073 13.4986 13.2608 13.0014 13.2608C12.3235 13.2608 11.8038 12.9307 11.4422 12.2703C9.67965 9.58355 8.36901 7.03337 7.51032 4.61981L7.20525 3.7318L2.69712 3.69764C2.40335 3.69764 2.23952 3.71472 2.20563 3.74887C2.17173 3.78303 2.15478 3.8798 2.15478 4.03918C2.15478 4.24411 2.17738 4.46042 2.22258 4.68811L2.93439 6.60075C4.83255 11.5417 6.89454 15.4353 9.12037 18.2815C11.3462 21.1277 13.5325 22.5508 15.6792 22.5508H19.0688C19.2044 22.5508 19.306 22.5109 19.3738 22.4312C19.4416 22.3515 19.4981 22.1978 19.5433 21.9701L19.6111 21.6286L20.2551 18.623C20.4359 18.2132 20.5941 17.9399 20.7297 17.8033C20.9782 17.5529 21.272 17.4276 21.611 17.4276C22.1533 17.4276 22.7069 17.7578 23.2719 18.4181L26.153 22.1068C26.3338 22.4028 26.5258 22.5508 26.7292 22.5508H32.322C32.9999 22.5508 33.3389 22.38 33.3389 22.0384C33.3389 21.9246 33.305 21.8108 33.2372 21.6969L28.3223 15.515C27.9382 15.0368 27.7461 14.5245 27.7461 13.9781C27.7461 13.4316 27.9269 12.9079 28.2884 12.407C28.5822 11.9516 29.1528 11.1945 30.0002 10.1357C30.8476 9.07693 31.5876 8.08646 32.2203 7.16429C32.8531 6.24213 33.2711 5.40535 33.4745 4.65396L33.5762 4.20996C33.5536 4.16442 33.5423 4.09042 33.5423 3.98795C33.5423 3.88549 33.531 3.8001 33.5084 3.7318H28.1867C27.8478 3.86841 27.5766 4.07334 27.3732 4.34657L27.1699 4.9955C26.6049 6.56659 25.1248 8.99154 22.7295 12.2703C22.255 12.7257 21.7013 12.9534 21.0686 12.9534Z" fill="#131313"/>
</svg>
